# xmcd
#
# Track frame offsets: 
#        150
#        26717
#        48329
#        81026
#        90343
#        110617
#        127584
#        143852
#        166628
#        215730
#        232423
#        249255
#        266782
#        280714
#        297452
#        313232
#
# Disc length: 4528 seconds
#
# Revision: 0
# Processed by: cddbd v1.5PL3 Copyright (c) Steve Scherf et al.
# Submitted via: ExactAudioCopy v0.95a3
#
DISCID=e511ae10
DTITLE=Allman Brothers Band  - Dreams - Disc 4
DYEAR=1900
DGENRE=
TTITLE0=Can't Lose What You Never Had
TTITLE1=Come And Go Blues
TTITLE2=Bougainvilla
TTITLE3=Can You Fool
TTITLE4=Good Time Feeling
TTITLE5=Crazy Love
TTITLE6=Can't Take It With You
TTITLE7=Just Ain't Easy
TTITLE8=In Memory Of Elizabeth Reed
TTITLE9=Angeline
TTITLE10=Things You Used To Do
TTITLE11=Nancy
TTITLE12=Rain 
TTITLE13=I'm No Angel
TTITLE14=Demons
TTITLE15=Duane's Tune
EXTD=
EXTT0=
EXTT1=
EXTT2=
EXTT3=
EXTT4=
EXTT5=
EXTT6=
EXTT7=
EXTT8=
EXTT9=
EXTT10=
EXTT11=
EXTT12=
EXTT13=
EXTT14=
EXTT15=
PLAYORDER=
